<svg width="40" height="40" viewBox="0 0 40 40" fill="none" xmlns="http://www.w3.org/2000/svg">
<path d="M18.0037 39.5168C16.4359 38.5228 0.865915 22.7534 0.433415 21.7057C-0.674865 18.9924 -0.296428 18.4283 9.40778 8.81081C18.6254 -0.296213 18.8147 -0.430534 21.1934 0.241076C22.1125 0.536584 23.2748 1.5037 27.5457 5.72141C36.2228 14.2643 39.6557 17.9984 39.872 19.1536C40.3045 21.5177 40.1423 21.7594 31.0328 30.8665C26.3564 35.514 22.2206 39.4362 21.734 39.6511C20.5176 40.1615 18.9498 40.1078 18.0037 39.5168ZM21.5989 31.5918C23.5992 30.571 23.5992 27.186 21.5989 26.1652C18.9768 24.822 16.1386 27.1592 17.0576 29.9262C17.6253 31.6724 19.8689 32.4783 21.5989 31.5918ZM12.5704 23.1027C14.4897 22.4042 14.8951 19.3685 13.3003 17.9447C12.6245 17.3537 12.192 17.1925 11.2189 17.1925C10.1647 17.1925 9.84028 17.3268 9.05638 18.1059C8.27247 18.885 8.13731 19.2073 8.13731 20.2819C8.13731 21.3565 8.27247 21.6788 9.05638 22.4579C10.0295 23.425 11.1648 23.6399 12.5704 23.1027ZM21.6529 22.9146C22.6261 22.3505 23.1126 21.4639 23.1126 20.2819C23.1126 18.4014 21.8421 17.1925 19.8148 17.1925C17.7334 17.1925 16.3548 19.2611 17.0576 21.3296C17.6523 23.1295 19.95 23.9355 21.6529 22.9146ZM30.8706 22.6191C31.5734 22.0012 31.7626 21.5983 31.8707 20.4699C31.9789 19.1536 31.9248 19.0193 31.0328 18.1327C30.2218 17.3268 29.8975 17.1925 28.8162 17.1925C27.735 17.1925 27.4106 17.3268 26.6267 18.1059C25.8428 18.885 25.7076 19.2073 25.7076 20.2819C25.7076 21.3565 25.8428 21.6788 26.6267 22.4579C27.4106 23.237 27.735 23.3713 28.7892 23.3713C29.7623 23.3713 30.1948 23.2101 30.8706 22.6191ZM21.9232 13.727C22.8693 13.0554 23.3829 11.4435 23.0045 10.3421C22.5179 8.8914 21.5448 8.19293 20.004 8.19293C18.8957 8.19293 18.5714 8.32725 17.8415 9.02573C15.0843 11.7928 18.7606 16.0373 21.9232 13.727Z" fill="#D6ED16"/>
</svg>
