<svg width="176" height="32" viewBox="0 0 176 32" fill="none" xmlns="http://www.w3.org/2000/svg">
<g clip-path="url(#clip0_6527_939)">
<path d="M43.4829 31.4914C40.8315 31.0888 38.3498 30.3894 36.462 29.5205C35.5287 29.0967 34.7863 28.7364 34.7863 28.7153C34.7863 28.6941 35.4227 27.253 36.1863 25.5152C36.9499 23.7775 37.671 22.1457 37.7771 21.8702L37.968 21.404L39.177 22.0186C43.9708 24.4345 51.3522 24.8795 51.8825 22.8027C52.2007 21.4676 51.1613 20.8954 46.4312 19.8146C42.6132 18.9457 41.4678 18.5854 39.877 17.8013C37.0983 16.4027 35.4863 14.1139 35.2742 11.2106C34.8924 6.12452 38.3286 2.1828 44.2889 0.826508C47.2797 0.169554 52.1371 0.254322 55.4884 1.05962C57.6308 1.56823 60.4518 2.69141 60.4306 3.03048C60.4094 3.58147 57.5459 10.0662 57.355 10.0239C57.2489 10.0027 56.5702 9.72717 55.8278 9.43048C51.3098 7.56558 45.7313 7.56558 45.2646 9.43048C44.9253 10.8292 45.9858 11.4437 50.1644 12.2914C55.446 13.351 58.2671 14.5378 59.9216 16.3603C62.7851 19.5391 62.4457 24.6888 59.1367 28.0159C57.7156 29.4358 55.2551 30.7073 52.8158 31.2583C50.7583 31.7457 45.8798 31.8517 43.4829 31.4914Z" fill="#F8FAFC"/>
<path d="M130.852 31.449C127.267 30.8133 124.319 29.3086 121.964 26.9351C120.182 25.1338 119.207 23.608 118.464 21.4676C116.28 15.2371 118.083 8.28611 122.876 4.28081C126.291 1.44108 130.237 0.275514 135.688 0.487435C140.503 0.656971 143.918 1.94969 146.845 4.66227L148.309 6.03975L145.106 8.87949L141.882 11.698L140.821 10.702C140.248 10.1722 139.23 9.47287 138.551 9.15498C137.47 8.64638 137.109 8.5828 135.009 8.5828C133.036 8.60399 132.527 8.66757 131.721 9.07022C130.152 9.83313 129.24 10.7232 128.497 12.249C127.84 13.5841 127.797 13.7749 127.797 16C127.797 18.1192 127.861 18.4583 128.391 19.6027C129.176 21.2556 130.194 22.2941 131.806 23.0146C132.93 23.5232 133.355 23.608 135.009 23.5868C136.07 23.5868 137.3 23.4596 137.767 23.2901L138.615 22.9934L138.679 19.1153L138.721 15.2583H147.418L147.375 21.6583L147.312 28.0583L145.975 28.8424C142.009 31.1523 135.433 32.2967 130.852 31.449Z" fill="#F8FAFC"/>
<path d="M69.9969 8.68876H61.0882V1.05962H88.8748V8.68876H79.9661V31.1523H69.9969V8.68876Z" fill="#F8FAFC"/>
<path d="M83.8266 30.9404C83.869 30.8345 86.7961 24.053 90.3596 15.8941L96.829 1.05962H106.819L113.331 15.9576C116.916 24.1378 119.843 30.9192 119.843 31.004C119.843 31.0888 117.531 31.1311 114.71 31.11L109.556 31.0464L108.58 28.5033L107.583 25.9603L101.771 25.8967L95.9593 25.8543L94.9412 28.5033L93.9019 31.1523H88.8324C85.5871 31.1523 83.7841 31.0676 83.8266 30.9404ZM104.592 18.1828C102.492 12.6941 101.941 11.3166 101.835 11.1682C101.708 11.0411 98.8441 18.0345 98.8441 18.5007C98.8441 18.5854 100.18 18.649 101.814 18.649H104.783L104.592 18.1828Z" fill="#F8FAFC"/>
<path d="M14.3175 31.3854C13.0872 30.6013 0.8696 18.1616 0.530222 17.3351C-0.339437 15.1947 -0.0424804 14.7497 7.57233 7.16293C14.8053 -0.0211746 14.9538 -0.127134 16.8204 0.402667C17.5416 0.63578 18.4537 1.39869 21.805 4.72585C28.6138 11.4649 31.3076 14.4106 31.4773 15.3219C31.8167 17.1868 31.6894 17.3775 24.5413 24.5616C20.8717 28.2278 17.6264 31.3219 17.2446 31.4914C16.2901 31.8941 15.0599 31.8517 14.3175 31.3854ZM17.1386 25.1338C18.7082 24.3285 18.7082 21.6583 17.1386 20.853C15.0811 19.7934 12.8539 21.6371 13.5751 23.8199C14.0205 25.1974 15.7811 25.8331 17.1386 25.1338ZM10.054 18.4371C11.56 17.8861 11.8782 15.4914 10.6267 14.3682C10.0965 13.902 9.75708 13.7749 8.99348 13.7749C8.16624 13.7749 7.91171 13.8808 7.29659 14.4954C6.68146 15.11 6.57541 15.3643 6.57541 16.2119C6.57541 17.0596 6.68146 17.3139 7.29659 17.9285C8.06019 18.6914 8.95106 18.8609 10.054 18.4371ZM17.181 18.2888C17.9446 17.8437 18.3264 17.1444 18.3264 16.2119C18.3264 14.7285 17.3295 13.7749 15.7386 13.7749C14.1054 13.7749 13.0236 15.4066 13.5751 17.0384C14.0417 18.4583 15.8447 19.0941 17.181 18.2888ZM24.414 18.0556C24.9655 17.5682 25.114 17.2503 25.1988 16.3603C25.2837 15.3219 25.2412 15.2159 24.5413 14.5166C23.9049 13.8808 23.6504 13.7749 22.802 13.7749C21.9535 13.7749 21.699 13.8808 21.0838 14.4954C20.4687 15.11 20.3627 15.3643 20.3627 16.2119C20.3627 17.0596 20.4687 17.3139 21.0838 17.9285C21.699 18.5431 21.9535 18.649 22.7807 18.649C23.5443 18.649 23.8837 18.5219 24.414 18.0556ZM17.3931 11.0411C18.1355 10.5113 18.5385 9.23975 18.2416 8.37088C17.8598 7.22651 17.0961 6.67551 15.8871 6.67551C15.0175 6.67551 14.7629 6.78147 14.1902 7.33247C12.0267 9.51525 14.9114 12.8636 17.3931 11.0411Z" fill="#D6ED16"/>
<path d="M153.293 30.6437C153.739 30.1351 155.287 28.4186 156.751 26.8503L159.402 23.9682H162.541L165.659 23.947V19.9417L163.305 19.8146L169.456 13.1815L175.629 6.56955V31.5762H152.466L153.293 30.6437Z" fill="#D6ED16"/>
<path d="M150.599 23.0993H159.169L158.214 24.1166C157.684 24.6676 156.072 26.3841 154.651 27.9311C152.296 30.453 151.957 30.7285 151.321 30.7285H150.599V23.0993Z" fill="#D6ED16"/>
<path d="M152.933 11.8676H165.659V8.05299H151.236V0.635773H175.629V3.03047L175.607 5.40398L169.244 12.249L162.859 19.0729H152.933V11.8676Z" fill="#D6ED16"/>
</g>
<defs>
<clipPath id="clip0_6527_939">
<rect width="175.841" height="32" fill="white"/>
</clipPath>
</defs>
</svg>
